<svg xmlns="http://www.w3.org/2000/svg" width="256" height="256"><path d="M237.393 128c0 60.416-48.977 109.393-109.393 109.393-60.416 0-109.393-48.977-109.393-109.393C18.607 67.584 67.584 18.607 128 18.607c60.416 0 109.393 48.977 109.393 109.393z" fill="#0072ef"/><g><path d="M165.91 125.327c1.62.216 2.754.594 3.402 1.134.756.54 1.242 1.242 1.458 2.106.216.756.27 1.62.162 2.592v2.916c-1.62 1.08-3.672 1.998-6.156 2.754-2.376.649-5.022 1.189-7.938 1.62-2.917.325-5.995.595-9.235.81l-9.396.325a257.638 257.638 0 0 1-1.945 9.72c-.756 3.348-1.998 7.453-3.726 12.313-1.512 3.348-3.24 5.724-5.184 7.128-1.944 1.296-3.996 1.944-6.156 1.944-2.052 0-4.159-.486-6.319-1.458a57.19 57.19 0 0 1-6.156-3.564c-.216-1.404-.27-3.078-.162-5.022.108-1.944.27-3.996.486-6.157.216-2.268.486-4.482.81-6.642.432-2.268.81-4.482 1.134-6.642-3.456.54-6.264 1.026-8.424 1.458-2.052.432-3.51.81-4.375 1.134-2.052-.108-3.672-.486-4.86-1.134-1.188-.648-2.16-1.404-2.916-2.268a16.11 16.11 0 0 1-1.944-3.24 41.584 41.584 0 0 0-1.944-3.727c.432-.864.486-2.106.162-3.726-.216-1.62-.81-2.862-1.782-3.726.864-.108 1.512-.702 1.944-1.782.432-1.188.432-2.052 0-2.592a29.414 29.414 0 0 1 5.508-.81 121.98 121.98 0 0 1 5.994-.486c1.945-.108 3.78-.27 5.509-.486 1.728-.324 3.24-.81 4.536-1.458h4.212a57.116 57.116 0 0 1 4.374-.162c.324-1.404.27-2.593-.162-3.565-.432-.972-.54-1.836-.324-2.592.216-.54.594-.864 1.134-.972.648-.216 1.026-.594 1.135-1.134.432-1.404.54-2.484.324-3.24-.217-.864 0-1.944.648-3.24.54-.864 1.242-2.214 2.106-4.05.972-1.836 1.35-3.78 1.134-5.833a16.693 16.693 0 0 0 2.916-2.592 31.449 31.449 0 0 1 2.916-2.592 16.121 16.121 0 0 1 3.402-2.106c1.296-.648 2.862-.972 4.698-.972.972 1.188 1.674 2.322 2.107 3.402.432 1.08.864 2.106 1.296 3.078.432.972.972 1.89 1.62 2.754.756.864 1.836 1.674 3.24 2.43 0 .973-.162 2.16-.486 3.565a57.792 57.792 0 0 0-.81 4.212c-.216 1.404-.27 2.646-.162 3.726.108 1.08.648 1.836 1.62 2.268l-1.296 3.564-.972 3.24c1.836.325 3.942.54 6.318.649 2.376 0 4.644.216 6.804.648 2.16.324 4.105.972 5.833 1.944 1.836.864 3.132 2.376 3.888 4.536" fill="#fff"/></g></svg>